# xmcd CD database file
#
# Track frame offsets:
#	150
#	15990
#	30293
#	56683
#	90845
#	106214
#	131267
#	143214
#	164512
#	175634
#
# Disc length: 2773 seconds
#
# Revision: 0
# Processed by: cddbd v1.5.2PL0 Copyright (c) Steve Scherf et al.
# Submitted via: CDex 1.70beta2
#
DISCID=6a0ad30a
DTITLE=Sandy Dillon - Living in Dreams
DYEAR=2008
DGENRE=Blues
TTITLE0=Can't Afford To Lose My Man
TTITLE1=Goin' Down Hades 
TTITLE2=Graves
TTITLE3=Bad Luck Blues 
TTITLE4=High Flying Bird
TTITLE5=Lilly's Hurt Me Blues
TTITLE6=Chocolate Shake 
TTITLE7=Saliva Gland
TTITLE8=Sporting Life Blues
TTITLE9=Living In Dreams
EXTD=YEAR: 2008
EXTT0=
EXTT1=
EXTT2=
EXTT3=
EXTT4=
EXTT5=
EXTT6=
EXTT7=
EXTT8=
EXTT9=
PLAYORDER=
